<?xml version="1.0" encoding="UTF-8"?>
<svg width="1554px" height="491px" viewBox="0 0 1554 491" version="1.1" xmlns="http://www.w3.org/2000/svg" xmlns:xlink="http://www.w3.org/1999/xlink">
    <title>ICON-s3_Watermark</title>
    <defs>
        <path d="M300.135,157 C310.4625,157 320.4075,161.562249 323.85,169.165997 C325.1658,172.108648 326.764497,181.518591 327.916217,191.592134 L327.995835,192.295943 C328.022126,192.530856 328.048167,192.766055 328.073948,193.001467 L328.1505,193.708269 C328.226253,194.415564 328.299583,195.124117 328.370241,195.831959 L328.44,196.539491 C330.735,223.15261 334.56,226.19411 360.57,226.574297 C385.05,226.954485 397.29,231.136546 400.7325,241.021419 L400.895313,241.673169 C401.21648,242.976669 401.4975,244.280168 401.4975,245.583668 C401.4975,258.51004 381.225,268.014726 352.5375,268.014726 C343.74,268.014726 337.2375,269.915663 333.4125,272.957162 C329.97,275.998661 328.8225,277.519411 328.8225,290.445783 L328.822959,290.928959 C328.837953,298.888985 329.2203,310.215529 329.97,328.844712 C331.1175,356.978581 333.03,382.831325 334.1775,385.492637 C336.09,389.674699 340.68,391.955823 347.1825,391.955823 C351.39,391.955823 356.745,390.815261 362.4825,388.914324 C370.8975,385.872825 378.93,384.732262 385.4325,384.732262 C399.2025,384.732262 408,390.435074 408,400.700134 C408,412.105756 399.2025,421.990629 378.93,431.875502 C366.3075,437.958501 352.92,441 339.915,441 C319.26,441 300.135,433.396252 289.0425,418.94913 C277.5675,403.741633 274.125,386.633199 271.83,333.026774 C269.9175,286.643909 269.1525,282.08166 262.2675,268.7751 C257.6775,259.650602 255,252.427041 255,245.583668 C255,238.740295 256.9125,232.277108 261.5025,223.912985 C265.3275,216.309237 269.9175,201.862115 271.4475,191.977242 C274.5075,171.827309 277.95,164.223561 286.365,160.041499 C290.5725,158.140562 295.545,157 300.135,157 Z M295.1625,198.060241 C294.3975,198.060241 293.6325,199.580991 293.6325,203.382865 C293.6325,205.827945 291.372418,215.012278 288.335433,224.154491 L288.0292,225.06832 C287.926295,225.372716 287.822583,225.676814 287.718117,225.980362 L287.5125,226.574297 C284.07,236.078983 282.54,239.880857 281.3925,239.880857 C281.01,239.880857 280.6275,238.740295 280.245,236.45917 C279.48,231.516734 278.715,229.235609 277.185,229.235609 C275.655,229.235609 273.7425,231.896921 271.83,236.45917 C269.9175,240.641232 268.77,243.302544 268.77,246.344043 C268.77,250.906292 271.065,256.609103 276.0375,266.113788 C282.9225,279.420348 283.6875,283.982597 285.6,332.266399 C287.13,374.84739 288.66,386.253012 293.25,396.518072 C293.6325,397.354485 294.034125,398.187095 294.448755,399.0083 L294.699045,399.499593 C298.391412,406.683371 302.9961,412.866131 304.3425,412.866131 C304.725,412.866131 304.725,412.485944 304.725,412.105756 C304.725,411.345382 304.3425,410.204819 303.5775,407.923695 C295.545,388.914324 293.25,373.32664 291.72,326.1834 C291.3375,313.257028 290.955,301.471218 290.955,292.726908 L290.955228,292.420212 C290.970262,282.340796 291.723825,276.378849 292.1025,276.378849 C293.25,277.139224 295.1625,301.851406 296.31,330.745649 C298.605,384.732262 301.665,398.038822 311.9925,406.402945 C312.661875,406.901941 313.111611,407.328167 313.437801,407.649785 L313.631421,407.841817 C313.928906,408.136808 314.108203,408.303882 314.2875,408.303882 L314.67,407.923695 C314.67,407.16332 313.14,405.262383 310.4625,401.460509 C302.8125,390.435074 299.7525,365.342704 299.37,312.496653 L299.37,310.595716 C299.37,278.659973 303.5775,263.072289 314.2875,254.327979 C316.965,252.046854 318.495,250.526104 318.495,248.24498 C318.495,245.583668 316.2,241.781794 310.4625,233.797858 C305.8725,226.954485 300.9,216.309237 300.135,209.846051 C298.9875,202.62249 296.6925,198.060241 295.1625,198.060241 Z M318.495,287.784471 C316.965,287.784471 315.435,289.305221 314.2875,291.966533 C313.5225,293.86747 313.14,300.710843 313.14,309.835341 C313.14,317.112129 313.365178,325.795761 313.740903,334.513926 L313.820763,336.317726 C314.763292,357.056748 316.52895,377.455475 318.1125,379.029451 C319.26,380.170013 320.79,380.930388 322.32,380.930388 C323.085,380.930388 323.4675,380.550201 324.2325,380.170013 C325.7625,379.409639 326.5275,374.467202 326.5275,363.441767 C326.5275,357.358768 326.145,349.374833 325.7625,339.109772 C324.9975,317.43909 323.4675,297.289157 322.7025,293.86747 C321.9375,289.685408 320.4075,287.784471 318.495,287.784471 Z M283.6875,246.72423 C284.07,246.72423 284.07,247.104418 284.4525,247.864793 C284.835,248.625167 284.835,249.76573 284.835,250.526104 C284.835,251.666667 284.835,252.807229 284.4525,253.187416 L283.6875,253.567604 C283.305,253.567604 282.9225,252.427041 282.9225,250.526104 L282.9225,249.76573 C282.9225,247.864793 283.305,246.72423 283.6875,246.72423 Z M288.66,187.414993 C287.13,187.414993 285.6,190.83668 284.4525,197.680054 C283.6875,203.382865 282.1575,212.127175 281.01,217.069612 C280.6275,219.350736 280.245,221.251673 280.245,222.772423 C280.245,225.053548 281.01,226.19411 281.775,226.19411 C283.305,226.19411 285.9825,222.772423 287.895,215.92905 C289.425,210.226238 290.955,201.10174 290.955,196.159304 C290.955,190.456493 289.8075,187.414993 288.66,187.414993 Z M316.5825,173.728246 C314.67,173.728246 313.14,175.248996 311.9925,178.670683 C311.647016,179.700868 311.613582,181.041217 311.610347,183.252023 L311.61,183.993307 C311.61,188.175368 311.9925,193.497992 312.7575,198.440428 C314.2875,209.085676 315.8175,213.647925 318.8775,213.647925 C322.32,213.647925 324.2325,206.044177 324.2325,196.159304 C324.2325,191.977242 323.85,187.414993 323.085,182.852744 C321.9375,177.149933 319.26,173.728246 316.5825,173.728246 Z" id="path-1"></path>
        <filter x="-2.9%" y="-0.9%" width="105.9%" height="103.5%" filterUnits="objectBoundingBox" id="filter-2">
            <feOffset dx="0" dy="3" in="SourceAlpha" result="shadowOffsetOuter1"></feOffset>
            <feGaussianBlur stdDeviation="1" in="shadowOffsetOuter1" result="shadowBlurOuter1"></feGaussianBlur>
            <feComposite in="shadowBlurOuter1" in2="SourceAlpha" operator="out" result="shadowBlurOuter1"></feComposite>
            <feColorMatrix values="0 0 0 0 0.819151947   0 0 0 0 0.818199808   0 0 0 0 0.818199808  0 0 0 1 0" type="matrix" in="shadowBlurOuter1" result="shadowMatrixOuter1"></feColorMatrix>
            <feOffset dx="0" dy="2" in="SourceAlpha" result="shadowOffsetOuter2"></feOffset>
            <feGaussianBlur stdDeviation="0.5" in="shadowOffsetOuter2" result="shadowBlurOuter2"></feGaussianBlur>
            <feComposite in="shadowBlurOuter2" in2="SourceAlpha" operator="out" result="shadowBlurOuter2"></feComposite>
            <feColorMatrix values="0 0 0 0 0.93212183   0 0 0 0 0.93212183   0 0 0 0 0.93212183  0 0 0 1 0" type="matrix" in="shadowBlurOuter2" result="shadowMatrixOuter2"></feColorMatrix>
            <feMerge>
                <feMergeNode in="shadowMatrixOuter1"></feMergeNode>
                <feMergeNode in="shadowMatrixOuter2"></feMergeNode>
            </feMerge>
        </filter>
        <path d="M82.775378,221 C116.792657,221 151.187905,232.778929 163.660907,251.017271 C167.818575,257.476684 169.708423,262.7962 169.708423,267.735751 C169.708423,273.435233 167.062635,278.374784 161.015119,282.174439 C155.345572,285.594128 149.676026,287.11399 144.006479,287.11399 C135.313175,287.11399 125.485961,282.93437 111.12311,274.57513 C96.3822894,265.835924 90.3347732,263.176166 84.287257,263.176166 C82.775378,263.176166 81.2634989,263.176166 79.7516199,263.556131 C74.0820734,264.316062 68.412527,266.215889 66.1447084,268.115717 C63.4989201,270.395509 62.3650108,273.815199 62.3650108,277.994819 C62.3650108,287.493955 68.412527,299.272884 77.1058315,303.452504 C80.026507,304.920553 87.235265,307.069242 94.8954001,309.197305 L95.5723682,309.385004 C96.3633031,309.603882 97.1578254,309.822323 97.9517498,310.039562 L98.6320124,310.225454 C99.6518938,310.503798 100.66881,310.779793 101.673866,311.051813 C160.259179,326.250432 175,336.889465 175,366.52677 L175,372.986183 C174.24406,382.865285 171.598272,396.164076 168.952484,401.863558 C157.613391,425.041451 122.462203,440.620035 80.1295896,441 L77.4838013,441 C48.0021598,441 30.237581,435.300518 13.9848812,419.721934 C4.53563715,410.602763 0,404.143351 0,397.683938 C0,393.884283 1.51187905,390.084629 4.53563715,386.284974 C8.69330454,380.965458 15.87473,378.685665 24.1900648,378.685665 C32.5053996,378.685665 41.9546436,380.965458 51.7818575,385.905009 C63.4989201,391.984456 75.2159827,394.644214 85.7991361,394.644214 C99.7840173,394.644214 111.12311,389.704663 115.280778,380.205527 C116.414687,377.545769 116.792657,376.025907 116.792657,374.126079 C116.792657,371.466321 115.658747,369.566494 113.012959,365.766839 C105.453564,355.507772 97.1382289,351.708117 69.1684665,346.768566 C42.3326134,342.208981 28.7257019,336.129534 17.7645788,324.350604 C6.0475162,311.431779 1.51187905,300.412781 1.51187905,281.794473 C1.51187905,251.777202 16.2526998,233.918826 48.7580994,225.17962 C59.3412527,222.139896 71.0583153,221 82.775378,221 Z M137.580994,351.708117 C137.580994,351.708117 137.203024,351.708117 137.203024,352.088083 C137.203024,352.435008 137.518118,353.415448 137.860611,354.450977 L137.958963,354.747841 C140.226782,361.967185 141.360691,368.426598 141.360691,374.506045 C141.360691,379.825561 140.604752,384.765112 138.714903,389.704663 C136.825054,395.02418 135.691145,398.063903 135.691145,399.2038 C135.691145,399.583765 135.691145,399.963731 136.069114,399.963731 C136.447084,399.963731 137.580994,398.823834 138.714903,397.683938 C140.982721,395.404145 143.62851,386.284974 144.384449,377.165803 C144.733344,374.009167 144.760182,371.176288 144.762247,368.966021 L144.762419,368.426598 C144.762419,361.967185 143.62851,358.547496 140.982721,355.507772 C139.092873,353.227979 137.958963,351.708117 137.580994,351.708117 Z M161.771058,345.62867 C159.88121,345.62867 159.12527,348.288428 159.12527,353.98791 C159.12527,357.027634 159.50324,360.447323 159.88121,365.006908 C161.393089,380.965458 162.526998,388.944732 164.794816,388.944732 C165.550756,388.944732 166.684665,387.804836 167.440605,385.525043 C168.952484,381.725389 169.708423,374.506045 169.708423,367.666667 C169.708423,359.307427 168.574514,350.948187 166.684665,349.048359 C164.416847,346.768566 162.904968,345.62867 161.771058,345.62867 Z M126.241901,351.328152 C125.863931,351.328152 125.863931,351.328152 125.863931,351.708117 C125.863931,352.468048 126.241901,353.98791 126.99784,356.647668 C128.131749,360.447323 129.643629,368.806563 130.399568,375.265976 C131.155508,382.105354 132.667387,385.525043 133.801296,385.525043 C135.313175,385.525043 136.825054,380.965458 136.825054,372.226252 C136.825054,363.487047 134.935205,358.927461 130.777538,355.127807 C128.131749,352.848014 126.99784,351.328152 126.241901,351.328152 Z M41.9546436,251.397237 C35.9071274,251.397237 29.8596112,259.376511 26.4578834,271.15544 C24.5680346,277.994819 23.0561555,281.414508 22.300216,281.414508 C21.9483131,281.414508 21.9240439,280.75578 21.9223702,279.438326 L21.9228026,278.572922 C21.927137,277.00483 21.9652411,274.60932 22.300216,271.915371 C22.6781857,270.395509 22.6781857,269.255613 22.6781857,268.115717 C22.6781857,264.696028 21.9222462,262.7962 20.7883369,262.7962 C18.8984881,262.7962 16.6306695,266.595855 15.1187905,273.815199 C14.7408207,276.094991 14.362851,278.75475 14.362851,281.414508 C14.362851,291.673575 17.7645788,302.692573 23.4341253,309.911917 C26.0799136,313.331606 28.3477322,314.851468 29.4816415,314.851468 C30.237581,314.851468 30.6155508,314.471503 30.6155508,313.331606 C30.6155508,311.811744 29.8596112,309.151986 27.9697624,305.352332 C25.7019438,301.172712 24.1900648,295.093264 24.1900648,292.053541 L24.1905858,291.181303 C24.1947462,289.914113 24.2321292,289.013817 24.5680346,289.013817 C24.9460043,289.013817 25.7019438,290.533679 26.8358531,293.953368 C29.1036717,301.932642 39.3088553,315.231434 43.4665227,315.231434 C43.8444924,315.231434 43.8444924,314.851468 43.8444924,314.471503 C43.8444924,312.951641 42.7105832,309.911917 40.4427646,306.112263 C37.0410367,300.412781 35.1511879,292.433506 35.1511879,284.834197 C35.1511879,277.234888 37.0410367,268.875648 40.4427646,263.176166 C43.4665227,258.236615 45.7343413,253.677029 45.7343413,252.917098 C45.7343413,252.157168 44.2224622,251.397237 41.9546436,251.397237 Z M157.235421,257.856649 C156.479482,257.856649 156.101512,258.236615 156.101512,259.376511 C156.101512,260.896373 157.235421,262.7962 158.7473,263.936097 C159.50324,264.316062 160.259179,264.316062 160.637149,264.316062 C161.393089,264.316062 161.771058,263.936097 161.771058,262.7962 C161.771058,261.276339 160.259179,259.376511 158.7473,258.236615 C158.080295,257.901351 157.707556,257.861908 157.369438,257.857268 Z" id="path-3"></path>
        <filter x="-2.6%" y="-1.1%" width="105.1%" height="104.5%" filterUnits="objectBoundingBox" id="filter-4">
            <feOffset dx="0" dy="3" in="SourceAlpha" result="shadowOffsetOuter1"></feOffset>
            <feGaussianBlur stdDeviation="1" in="shadowOffsetOuter1" result="shadowBlurOuter1"></feGaussianBlur>
            <feComposite in="shadowBlurOuter1" in2="SourceAlpha" operator="out" result="shadowBlurOuter1"></feComposite>
            <feColorMatrix values="0 0 0 0 0.819151947   0 0 0 0 0.818199808   0 0 0 0 0.818199808  0 0 0 1 0" type="matrix" in="shadowBlurOuter1" result="shadowMatrixOuter1"></feColorMatrix>
            <feOffset dx="0" dy="2" in="SourceAlpha" result="shadowOffsetOuter2"></feOffset>
            <feGaussianBlur stdDeviation="0.5" in="shadowOffsetOuter2" result="shadowBlurOuter2"></feGaussianBlur>
            <feComposite in="shadowBlurOuter2" in2="SourceAlpha" operator="out" result="shadowBlurOuter2"></feComposite>
            <feColorMatrix values="0 0 0 0 0.93212183   0 0 0 0 0.93212183   0 0 0 0 0.93212183  0 0 0 1 0" type="matrix" in="shadowBlurOuter2" result="shadowMatrixOuter2"></feColorMatrix>
            <feMerge>
                <feMergeNode in="shadowMatrixOuter1"></feMergeNode>
                <feMergeNode in="shadowMatrixOuter2"></feMergeNode>
            </feMerge>
        </filter>
        <path d="M654.045635,219 C668.980159,219 674.724206,222.829787 678.553571,233.553191 C680.85119,240.06383 682,276.06383 682,314.361702 C682,317.498298 681.992494,320.64803 681.977615,323.795923 L681.963058,326.493317 C681.960332,326.942691 681.957456,327.39194 681.954431,327.841021 L681.93449,330.533135 C681.615838,369.977566 680.146587,407.440851 677.787698,413.170213 C673.575397,423.12766 664.384921,428.106383 648.684524,428.106383 C645.238095,428.106383 641.791667,427.723404 637.579365,427.340426 C633.75,426.957447 629.920635,426.957447 626.857143,426.957447 C619.964286,426.957447 613.837302,428.106383 606.561508,430.404255 C596.988095,433.468085 587.031746,435 576.69246,435 C563.672619,435 550.652778,432.319149 539.930556,427.340426 C519.634921,417.765957 510.827381,409.340426 502.019841,390.191489 C492.446429,369.12766 489,340.021277 489,284.489362 C489,237.765957 491.680556,225.12766 500.871032,221.297872 C503.551587,220.148936 509.295635,219.382979 515.422619,219.382979 C523.081349,219.382979 530.740079,220.531915 533.803571,222.06383 C536.484127,223.595745 539.547619,227.042553 540.696429,229.723404 C541.845238,232.404255 544.525794,260.361702 546.440476,291.765957 C550.269841,354.957447 554.865079,374.87234 566.353175,384.06383 C570.948413,387.510638 576.309524,389.425532 582.053571,389.425532 C593.541667,389.425532 606.178571,382.531915 615.751984,369.510638 C621.113095,362.234043 621.878968,356.87234 623.410714,299.425532 C625.325397,223.595745 626.857143,219 654.045635,219 Z M671.277778,236.617021 L670.128968,236.617021 C668.597222,236.617021 667.065476,237.382979 666.299603,239.297872 C665.639964,240.947152 665.548466,252.824091 665.535774,269.300728 L665.535032,270.418417 C665.534821,270.79326 665.534644,271.170362 665.534496,271.54966 L665.533993,273.328975 L665.53373,277.595745 C665.53373,289.755319 665.629464,303.734043 665.802982,317.892287 L665.846111,321.292873 C666.388789,362.688179 667.58244,404.495745 668.980159,405.893617 L669.163586,406.07656 C669.6958,406.604049 669.796263,406.654286 670.328478,406.659574 L670.511905,406.659574 C674.34127,406.659574 675.490079,391.340426 675.490079,346.914894 L675.490079,318.957447 C675.107143,257.297872 673.958333,237.765957 671.277778,236.617021 Z M649.833333,321.255319 L646.769841,343.468085 C644.855159,358.021277 640.642857,372.191489 634.89881,384.06383 C630.303571,393.638298 628.005952,398.234043 628.005952,400.914894 C628.005952,402.829787 629.154762,403.595745 631.069444,404.361702 C634.89881,405.893617 637.962302,406.276596 640.642857,406.276596 C645.621032,406.276596 649.06746,403.978723 650.982143,399.382979 C651.748016,397.085106 652.513889,390.191489 652.513889,380.617021 C652.513889,373.723404 652.130952,366.06383 651.748016,357.255319 L649.833333,321.255319 Z M513.125,287.93617 C511.97619,287.93617 511.210317,291.765957 511.210317,297.893617 C511.210317,318.574468 517.337302,365.680851 523.081349,379.468085 C527.676587,390.574468 538.781746,403.212766 542.994048,403.212766 C543.376984,403.212766 543.759921,403.212766 544.142857,402.829787 L544.142857,402.446809 C544.142857,400.914894 541.462302,396.702128 538.015873,392.489362 C533.803571,387.510638 528.825397,379.468085 526.910714,374.489362 C521.93254,362.617021 516.954365,330.06383 516.954365,309.382979 C516.954365,300.574468 515.805556,291.382979 514.27381,289.085106 C513.890873,288.319149 513.507937,287.93617 513.125,287.93617 Z M505.098403,249.63852 L505.083333,249.638298 C503.551587,249.638298 503.168651,260.361702 503.168651,275.297872 C503.168651,307.851064 506.232143,360.702128 509.678571,371.808511 C513.507937,384.06383 523.464286,400.531915 526.527778,400.531915 C526.910714,400.531915 526.910714,400.148936 526.910714,400.148936 L526.910714,399.765957 C526.910714,398.234043 524.230159,390.574468 520.78373,381.765957 C513.125,362.617021 508.529762,327 508.529762,282.191489 C508.529762,266.87234 507.380952,252.319149 505.849206,250.021277 C505.849206,249.638298 505.083333,249.638298 505.083333,249.638298 Z M639.494048,254.234043 C638.345238,254.234043 636.813492,273.382979 636.047619,310.148936 C636.032302,310.700426 636.016831,311.251302 636.00121,311.801404 L635.953901,313.44922 C635.189841,339.771881 634.086984,363.934468 632.984127,367.978723 C632.60119,369.893617 632.218254,371.808511 632.218254,372.957447 C632.218254,374.87234 632.984127,375.638298 633.75,375.638298 C635.281746,375.638298 637.579365,370.276596 639.494048,363.765957 C641.40873,357.638298 642.174603,341.170213 642.174603,316.659574 L642.174603,299.042553 C641.791667,268.787234 640.642857,254.234043 639.494048,254.234043 Z M532.271825,234.702128 C529.59127,234.702128 528.44246,241.212766 528.44246,256.531915 C528.44246,267.255319 529.208333,281.808511 530.357143,301.723404 C531.253214,317.257021 532.032796,329.237323 532.854897,338.459438 L532.981731,339.856571 C534.232652,353.383174 535.599544,360.690638 537.632937,364.531915 C540.696429,370.276596 543.376984,372.957447 544.90873,372.957447 C546.823413,372.957447 547.589286,369.893617 547.589286,363.382979 C547.589286,357.638298 546.823413,348.829787 545.291667,338.106383 C544.158175,331.304681 542.814987,315.275336 541.727628,298.398726 L541.640033,297.028661 L541.553615,295.655875 C541.424898,293.595153 541.300337,291.528598 541.18077,289.471288 L541.101808,288.101282 C540.958434,285.592723 540.822798,283.102979 540.696429,280.659574 C539.547619,251.553191 537.632937,238.914894 534.952381,236.234043 C533.803571,235.085106 533.037698,234.702128 532.271825,234.702128 Z" id="path-5"></path>
        <filter x="-2.3%" y="-1.2%" width="104.7%" height="104.6%" filterUnits="objectBoundingBox" id="filter-6">
            <feOffset dx="0" dy="3" in="SourceAlpha" result="shadowOffsetOuter1"></feOffset>
            <feGaussianBlur stdDeviation="1" in="shadowOffsetOuter1" result="shadowBlurOuter1"></feGaussianBlur>
            <feComposite in="shadowBlurOuter1" in2="SourceAlpha" operator="out" result="shadowBlurOuter1"></feComposite>
            <feColorMatrix values="0 0 0 0 0.819151947   0 0 0 0 0.818199808   0 0 0 0 0.818199808  0 0 0 1 0" type="matrix" in="shadowBlurOuter1" result="shadowMatrixOuter1"></feColorMatrix>
            <feOffset dx="0" dy="2" in="SourceAlpha" result="shadowOffsetOuter2"></feOffset>
            <feGaussianBlur stdDeviation="0.5" in="shadowOffsetOuter2" result="shadowBlurOuter2"></feGaussianBlur>
            <feComposite in="shadowBlurOuter2" in2="SourceAlpha" operator="out" result="shadowBlurOuter2"></feComposite>
            <feColorMatrix values="0 0 0 0 0.93212183   0 0 0 0 0.93212183   0 0 0 0 0.93212183  0 0 0 1 0" type="matrix" in="shadowBlurOuter2" result="shadowMatrixOuter2"></feColorMatrix>
            <feMerge>
                <feMergeNode in="shadowMatrixOuter1"></feMergeNode>
                <feMergeNode in="shadowMatrixOuter2"></feMergeNode>
            </feMerge>
        </filter>
        <path d="M931.51405,155 C952.17407,155 955.617407,159.974667 956,194.797333 L956,246.457333 C956,259.207787 955.977886,272.55543 955.935538,285.94753 L955.919755,290.6751 C955.695418,354.497909 955.016736,417.853733 954.087035,420.953333 C951.026291,430.137333 938.01813,434.346667 912.001808,434.346667 C898.228461,434.346667 881.394371,436.26 872.212139,438.938667 C864.56028,441.234667 857.291013,442 849.639154,442 C815.58838,442 783.45057,420.953333 771.972781,388.426667 C768.22337,377.176267 767.046055,365.925867 767.000462,333.065698 L767,329.499669 C767.06155,279.481007 770.216679,266.176147 785.746128,248.370667 C803.345404,228.089333 825.535797,218.522667 853.082491,218.522667 C858.438792,218.522667 864.177687,218.905333 869.916581,219.670667 C875.272883,220.436 879.863999,220.818667 883.307335,220.818667 C896.315496,220.818667 897.463275,213.930667 901.289205,184.465333 C902.436984,174.516 905.115135,168.776 910.854029,163.036 C916.975517,156.530667 921.18404,155 931.51405,155 Z M791.485022,363.936 C791.102429,363.936 790.719836,364.318667 790.719836,365.084 C790.719836,367.38 791.867615,373.12 794.928359,381.538667 C799.902068,396.845333 810.232078,407.56 825.535797,413.3 L836.630993,417.509333 L828.596541,411.004 C815.205787,400.672 804.875776,389.192 799.136882,376.564 C795.310952,368.145333 792.632801,363.936 791.485022,363.936 Z M925.775155,205.894667 C923.86219,205.894667 921.949226,209.721333 921.949226,213.930667 C921.949226,223.114667 915.445145,233.064 904.732542,240.334667 L893.637346,247.605333 L901.289205,256.406667 L909.323658,264.825333 L901.671798,259.085333 C898.228461,256.406667 893.637346,254.493333 890.959195,254.493333 L889.428823,254.493333 C888.281044,254.876 887.515858,255.641333 887.515858,256.789333 C887.515858,258.32 889.428823,260.998667 892.87216,265.590667 C907.0281,283.958667 912.001808,299.265333 912.001808,323.756 C912.001808,336.001333 910.088843,353.986667 908.175879,363.553333 C906.645507,370.824 905.880321,377.329333 905.880321,380.773333 C905.880321,381.921333 905.497728,382.304 905.880321,382.686667 C906.262914,383.069333 906.645507,383.452 907.0281,383.452 C911.236622,383.452 916.975517,359.726667 918.888482,331.792 C920.036261,314.189333 920.418854,306.153333 920.801447,306.153333 C921.18404,306.153333 921.566633,311.510667 921.566633,321.46 L921.566633,325.286667 C921.566633,350.542667 917.35811,373.502667 910.471436,387.278667 C907.0281,394.166667 905.115135,399.524 905.115135,403.733333 C905.115135,408.708 907.793286,412.152 912.766994,413.3 C915.062552,414.065333 916.975517,414.448 918.888482,414.448 C928.070713,414.448 928.453306,399.141333 928.453306,307.301333 L928.453077,305.662484 C928.438002,251.673731 927.680468,207.035013 926.922934,206.277333 C926.540341,205.894667 926.157748,205.894667 925.775155,205.894667 Z M786.511314,275.157333 C785.746128,275.157333 784.598349,277.453333 783.067977,282.428 C781.688194,287.258172 781.24142,305.152992 781.166855,324.333374 L781.162514,325.58597 C781.158689,326.840146 781.156395,328.098702 781.155477,329.358369 L781.155477,331.883727 C781.15579,332.296893 781.156261,332.709947 781.156898,333.122774 L781.159309,334.360462 C781.159796,334.566592 781.160326,334.772637 781.160899,334.978584 L781.164867,336.212958 C781.168748,337.275451 781.173836,338.334538 781.180237,339.38826 L781.188555,340.650028 C781.309534,357.645749 781.786117,373.028377 783.067977,378.477333 C785.363535,388.426667 799.519475,411.004 803.345404,411.004 C803.727997,411.004 803.727997,410.621333 803.727997,410.621333 C803.727997,410.621333 804.11059,410.621333 804.11059,410.238667 C804.11059,407.942667 801.815033,401.82 798.371696,395.697333 C788.806872,378.094667 784.598349,358.578667 784.598349,331.409333 C784.598349,321.46 785.363535,310.745333 786.511314,298.117333 C787.211377,291.815546 787.270957,286.47467 787.276028,282.680792 L787.276205,280.774774 C787.272452,277.131514 787.22085,275.157333 786.511314,275.157333 Z M946.052583,168.776 C944.904804,168.776 943.374432,170.306667 942.609246,172.602667 C941.962281,173.896845 941.862325,187.774647 941.846882,208.453759 L941.846015,209.768798 C941.845887,209.98946 941.845768,210.210863 941.845657,210.432999 L941.845079,211.77456 L941.844618,213.302529 L941.844632,222.505449 C941.882281,291.271312 943.772329,406.427307 945.287397,407.942667 C945.66999,408.325333 946.435176,408.708 947.200362,408.708 C947.965548,408.708 948.730734,408.325333 949.495919,407.56 C951.026291,406.029333 952.17407,317.250667 952.17407,249.901333 C952.17407,211.634667 951.408884,180.638667 950.643698,176.429333 C949.495919,171.454667 947.965548,168.776 946.052583,168.776 Z M856.525827,263.677333 C832.42247,263.677333 821.709867,283.576 821.709867,325.286667 C821.709867,367.762667 837.013586,394.549333 858.821385,394.549333 C863.412501,394.549333 868.38621,393.401333 873.742511,390.722667 C888.663637,383.452 894.019939,371.972 897.463275,341.358667 C898.228461,334.088 898.993647,327.582667 898.993647,321.46 C898.993647,299.648 893.254753,285.872 880.246592,274.009333 C871.06436,265.590667 866.473245,263.677333 856.525827,263.677333 Z M810.997264,314.189333 C807.93652,314.189333 806.406148,325.286667 806.406148,338.297333 C806.406148,351.308 808.319113,365.849333 811.379857,371.972 C814.058008,376.946667 817.501344,381.156 819.031716,381.156 C820.179495,381.156 820.944681,380.390667 820.944681,376.564 C820.944681,371.206667 819.796902,358.961333 816.353566,335.236 C814.823194,324.904 812.910229,315.72 812.145043,314.954667 C811.76245,314.572 811.379857,314.189333 810.997264,314.189333 Z M815.205787,253.728 L814.440601,253.728 C811.76245,253.728 801.815033,261.764 799.136882,266.738667 C796.076138,272.478667 792.632801,287.402667 792.632801,293.525333 C792.632801,295.056 793.015394,295.821333 793.397987,295.821333 L793.78058,295.821333 C795.310952,295.056 796.458731,292.76 796.458731,290.846667 C796.458731,288.933333 800.667254,279.749333 806.023555,270.948 C810.997264,262.529333 815.205787,255.258667 815.205787,254.110667 L815.205787,253.728 Z M917.35811,287.02 C917.740703,287.02 918.123296,287.785333 918.505889,288.550667 C918.888482,289.316 918.888482,290.464 918.888482,291.229333 C918.888482,292.377333 918.505889,293.525333 918.123296,293.908 L917.740703,293.908 C917.35811,293.908 916.592924,292.76 916.592924,290.846667 L916.592924,290.081333 C916.592924,288.168 916.975517,287.02 917.35811,287.02 Z M916.975517,188.674667 C915.445145,188.674667 913.914773,194.414667 913.149587,203.981333 L913.149878,211.122706 C913.161926,216.323081 913.550399,219.288 914.679959,219.288 C915.445145,219.288 916.210331,217.757333 917.35811,214.696 C918.123296,212.4 919.271075,205.129333 919.271075,199.389333 C919.271075,192.118667 918.123296,188.674667 916.975517,188.674667 Z" id="path-7"></path>
        <filter x="-2.4%" y="-0.9%" width="104.8%" height="103.5%" filterUnits="objectBoundingBox" id="filter-8">
            <feOffset dx="0" dy="3" in="SourceAlpha" result="shadowOffsetOuter1"></feOffset>
            <feGaussianBlur stdDeviation="1" in="shadowOffsetOuter1" result="shadowBlurOuter1"></feGaussianBlur>
            <feComposite in="shadowBlurOuter1" in2="SourceAlpha" operator="out" result="shadowBlurOuter1"></feComposite>
            <feColorMatrix values="0 0 0 0 0.819151947   0 0 0 0 0.818199808   0 0 0 0 0.818199808  0 0 0 1 0" type="matrix" in="shadowBlurOuter1" result="shadowMatrixOuter1"></feColorMatrix>
            <feOffset dx="0" dy="2" in="SourceAlpha" result="shadowOffsetOuter2"></feOffset>
            <feGaussianBlur stdDeviation="0.5" in="shadowOffsetOuter2" result="shadowBlurOuter2"></feGaussianBlur>
            <feComposite in="shadowBlurOuter2" in2="SourceAlpha" operator="out" result="shadowBlurOuter2"></feComposite>
            <feColorMatrix values="0 0 0 0 0.93212183   0 0 0 0 0.93212183   0 0 0 0 0.93212183  0 0 0 1 0" type="matrix" in="shadowBlurOuter2" result="shadowMatrixOuter2"></feColorMatrix>
            <feMerge>
                <feMergeNode in="shadowMatrixOuter1"></feMergeNode>
                <feMergeNode in="shadowMatrixOuter2"></feMergeNode>
            </feMerge>
        </filter>
        <path d="M1075.87644,226.516734 C1086.80121,226.516734 1096.97254,231.839357 1099.98627,240.583668 C1101.86985,246.666667 1103,285.065596 1103,324.605087 L1102.99864,327.275937 C1102.99819,327.721343 1102.99763,328.166853 1102.99695,328.612423 L1102.98779,332.623002 L1102.9783,335.295057 L1102.9661,337.963352 C1102.76267,377.949183 1101.64382,415.964123 1099.60956,420.412316 C1095.46568,428.776439 1081.9039,436 1071.73257,436 L1068.71884,436 C1064.19825,435.239625 1057.41736,431.437751 1054.02691,427.255689 C1048.41414,420.88314 1048.02799,419.785362 1048.00138,350.284347 L1047.9998,343.565978 L1047.99958,341.235123 L1047.99958,330.973097 C1048.00827,240.879948 1048.50802,236.71336 1061.56123,229.93842 C1066.08183,227.657296 1070.97913,226.516734 1075.87644,226.516734 Z M1093.20538,242.864793 C1092.45195,242.864793 1090.94509,245.145917 1089.81494,248.947791 C1088.30807,253.129853 1087.93136,288.487282 1087.93136,324.985274 L1087.93158,326.194572 L1087.93336,328.590055 C1087.9347,329.787917 1087.9367,330.985725 1087.93936,332.182425 L1087.94557,334.574033 C1088.05559,371.61134 1088.80428,406.906462 1090.19165,409.006693 C1091.3218,410.527443 1092.07523,411.287818 1092.82867,411.287818 C1096.59583,411.287818 1097.34926,390.757697 1097.34926,327.646586 L1097.34892,325.866273 C1097.32647,267.457824 1096.18897,242.864793 1093.20538,242.864793 Z M1064.19825,259.212851 C1062.69138,259.212851 1061.56123,284.685408 1061.56123,333.729585 L1061.56157,335.239345 C1061.58391,384.824112 1062.71022,410.907631 1064.57496,410.907631 C1066.45854,409.767068 1067.21197,382.013387 1067.21197,336.390897 C1067.21197,294.190094 1066.08183,261.874163 1064.57496,259.593039 Z M1076.25316,152 C1084.91763,152 1094.33553,154.661312 1098.10269,159.603748 C1101.11642,163.405622 1102.62328,167.207497 1102.62328,171.389558 C1102.62328,177.092369 1099.60956,183.175368 1093.20538,189.258367 C1086.42449,195.721553 1078.89017,198.763052 1072.10928,198.763052 C1062.31466,198.763052 1054.02691,192.680054 1049.88303,181.274431 C1049.50632,180.133869 1049.1296,178.613119 1049.1296,177.092369 C1049.1296,169.488621 1054.40363,159.223561 1061.18452,155.421687 C1065.32839,153.140562 1070.60242,152 1076.25316,152 Z" id="path-9"></path>
        <filter x="-8.2%" y="-0.9%" width="116.4%" height="103.5%" filterUnits="objectBoundingBox" id="filter-10">
            <feOffset dx="0" dy="3" in="SourceAlpha" result="shadowOffsetOuter1"></feOffset>
            <feGaussianBlur stdDeviation="1" in="shadowOffsetOuter1" result="shadowBlurOuter1"></feGaussianBlur>
            <feComposite in="shadowBlurOuter1" in2="SourceAlpha" operator="out" result="shadowBlurOuter1"></feComposite>
            <feColorMatrix values="0 0 0 0 0.819151947   0 0 0 0 0.818199808   0 0 0 0 0.818199808  0 0 0 1 0" type="matrix" in="shadowBlurOuter1" result="shadowMatrixOuter1"></feColorMatrix>
            <feOffset dx="0" dy="2" in="SourceAlpha" result="shadowOffsetOuter2"></feOffset>
            <feGaussianBlur stdDeviation="0.5" in="shadowOffsetOuter2" result="shadowBlurOuter2"></feGaussianBlur>
            <feComposite in="shadowBlurOuter2" in2="SourceAlpha" operator="out" result="shadowBlurOuter2"></feComposite>
            <feColorMatrix values="0 0 0 0 0.93212183   0 0 0 0 0.93212183   0 0 0 0 0.93212183  0 0 0 1 0" type="matrix" in="shadowBlurOuter2" result="shadowMatrixOuter2"></feColorMatrix>
            <feMerge>
                <feMergeNode in="shadowMatrixOuter1"></feMergeNode>
                <feMergeNode in="shadowMatrixOuter2"></feMergeNode>
            </feMerge>
        </filter>
        <path d="M1279.70816,219 C1293.50941,219 1308.46077,220.915808 1319.96182,224.364261 C1345.26412,232.027491 1360.21548,244.671821 1370.56642,264.979381 C1378.45614,281.125808 1378.98212,282.552701 1379,324.075601 L1379.00052,327.853772 C1378.98472,366.64033 1378.18011,372.762715 1372.86663,384.142612 C1358.29864,415.178694 1312.67782,442 1277.02458,442 C1273.57427,442 1270.12395,441.616838 1267.05701,441.233677 C1211.85199,432.804124 1190,401.38488 1190,330.883162 C1190,302.52921 1194.21705,274.558419 1200.35094,262.680412 C1209.93515,243.905498 1226.80335,230.111684 1250.18881,222.831615 C1257.85617,220.532646 1268.59048,219 1279.70816,219 Z M1217.21914,364.601375 C1216.83577,364.601375 1216.45241,365.367698 1216.45241,366.134021 C1216.45241,367.666667 1217.21914,370.348797 1217.98588,374.180412 C1221.05282,387.974227 1229.87029,401.001718 1240.22123,408.281787 C1246.35512,412.496564 1251.33891,414.412371 1253.25575,414.412371 C1254.02249,414.412371 1254.40586,414.02921 1254.40586,413.646048 C1254.40586,412.496564 1252.10565,410.197595 1247.50523,406.749141 C1236.38755,398.319588 1228.33682,387.974227 1222.20293,373.414089 C1219.51935,367.666667 1217.98588,364.601375 1217.21914,364.601375 Z M1213.76883,270.343643 C1213.00209,270.343643 1211.46862,273.408935 1209.16841,279.539519 C1206.48483,286.436426 1205.33473,304.061856 1205.33473,332.032646 C1205.33473,371.881443 1205.7181,374.946735 1213.00209,390.273196 C1217.21914,399.469072 1222.5863,406.365979 1224.88651,406.365979 C1226.41998,406.365979 1227.18671,405.982818 1227.18671,404.833333 C1227.18671,403.300687 1226.03661,400.618557 1223.35303,396.020619 C1214.1522,379.927835 1209.55178,354.256014 1209.55178,326.668385 C1209.55178,314.407216 1210.70188,301.762887 1212.61872,289.118557 C1213.76883,281.455326 1214.53556,276.474227 1214.53556,273.408935 C1214.53556,271.493127 1214.1522,270.343643 1213.76883,270.343643 Z M1278.94142,262.680412 C1271.27406,262.680412 1264.37343,265.745704 1259.00627,272.25945 C1250.95554,281.838488 1246.35512,303.295533 1246.35512,325.135739 C1246.35512,341.994845 1249.0387,359.237113 1254.40586,371.881443 C1260.92312,386.824742 1271.65742,394.871134 1283.92521,394.871134 C1289.67573,394.871134 1295.42625,392.955326 1301.17678,389.506873 C1313.44456,381.843643 1318.42834,370.731959 1322.26203,343.14433 C1323.41213,335.4811 1323.7955,328.584192 1323.7955,322.070447 C1323.7955,302.52921 1318.42834,288.735395 1307.69403,277.24055 C1298.4932,267.661512 1288.52563,262.680412 1278.94142,262.680412 Z M1347.56433,336.247423 C1347.19921,336.247423 1347.18183,337.637578 1347.181,340.086899 L1347.18096,340.462199 C1346.91169,344.768205 1345.50763,352.665752 1343.76585,360.570051 L1343.58758,361.373761 C1342.90001,364.453671 1342.16522,367.516139 1341.43044,370.348797 C1339.13023,378.395189 1338.36349,384.525773 1338.36349,387.207904 C1338.36349,388.357388 1338.74686,389.123711 1339.13023,389.123711 C1340.28033,389.123711 1342.19717,385.675258 1345.26412,377.628866 C1347.94769,371.11512 1349.0978,362.685567 1349.0978,353.489691 C1349.0978,351.573883 1348.71443,349.658076 1348.71443,347.359107 C1348.33106,340.079038 1347.94769,336.247423 1347.56433,336.247423 Z M1318.81171,261.147766 C1318.42834,261.147766 1318.42834,261.530928 1318.42834,261.914089 C1318.42834,263.446735 1320.34519,267.661512 1324.17887,273.792096 C1333.3797,288.352234 1337.59675,301.762887 1337.59675,320.537801 C1337.59675,327.051546 1337.21339,334.714777 1336.06328,342.761168 C1335.94827,343.611787 1335.83326,344.463785 1335.71842,345.314762 L1335.60363,346.16531 L1335.453,347.281242 C1335.42792,347.466989 1335.40286,347.652598 1335.37781,347.838044 L1335.22772,348.94856 C1333.6041,360.953589 1332.06201,372.056603 1331.07949,375.329897 C1330.31276,377.628866 1329.92939,379.544674 1329.92939,380.310997 C1329.92939,380.694158 1329.92939,380.694158 1330.31276,380.694158 C1330.69613,380.694158 1331.84623,379.927835 1333.76307,378.012027 C1338.74686,373.414089 1342.96391,343.527491 1342.96391,320.537801 L1342.96366,319.255263 C1342.96101,314.823696 1342.93057,310.975422 1342.58054,307.127148 C1340.6637,289.501718 1335.67991,277.623711 1326.47908,267.278351 C1322.64539,263.063574 1319.96182,261.147766 1318.81171,261.147766 Z M1237.15429,305.594502 C1233.32061,305.594502 1231.0204,317.85567 1231.0204,336.247423 L1231.0204,340.462199 C1231.40376,362.685567 1235.62081,375.329897 1242.13807,375.329897 C1244.43828,375.329897 1245.58839,374.180412 1245.58839,371.11512 C1245.58839,369.582474 1245.20502,367.666667 1244.82165,364.984536 C1244.2696,360.846392 1243.32007,351.543843 1242.40235,341.653347 L1242.32595,340.827876 C1242.18606,339.312378 1242.0472,337.786123 1241.91088,336.265431 L1241.83679,335.436613 C1241.67684,333.642461 1241.52085,331.860223 1241.37134,330.116838 C1240.22123,316.706186 1238.30439,305.594502 1237.15429,305.594502 Z M1356.76516,258.082474 C1355.61506,258.082474 1355.23169,259.231959 1355.23169,261.147766 L1355.23169,261.530928 C1355.23169,263.242926 1356.45625,270.768433 1358.35822,278.912399 L1358.49522,279.495092 C1358.6794,280.273232 1358.86961,281.05586 1359.06537,281.838488 C1361.36558,291.034364 1364.04916,314.790378 1365.19926,334.331615 C1366.34937,355.78866 1367.88284,366.900344 1369.79968,366.900344 C1371.33315,366.900344 1372.86663,360.003436 1374.78347,345.443299 C1375.5502,339.695876 1375.93357,333.182131 1375.93357,326.668385 C1375.93357,304.828179 1372.48326,280.689003 1367.1161,269.960481 C1363.66579,263.063574 1359.06537,258.082474 1356.76516,258.082474 Z M1323.02876,253.867698 L1329.54602,263.446735 C1332.8395,268.567167 1337.18091,277.178801 1339.9028,282.616614 L1340.28033,283.371134 C1342.58054,287.969072 1344.11401,289.88488 1344.88075,289.88488 C1345.26412,289.88488 1345.64749,289.501718 1346.03085,287.969072 C1346.03085,287.585911 1346.41422,287.202749 1346.41422,286.819588 C1346.41422,283.754296 1344.49738,278.006873 1341.8138,273.025773 C1338.74686,267.278351 1333.76307,260.764605 1329.92939,258.465636 L1323.02876,253.867698 Z M1233.70397,258.848797 L1233.32061,258.848797 C1231.0204,258.848797 1223.7364,268.810997 1221.05282,275.707904 C1218.75261,281.455326 1217.98588,285.286942 1217.98588,286.819588 C1217.98588,287.519274 1217.98588,287.580116 1218.27768,287.585407 L1218.36925,287.585911 C1219.51935,287.585911 1222.5863,284.137457 1226.41998,276.091065 C1230.63703,267.661512 1233.70397,260.381443 1233.70397,259.231959 L1233.70397,258.848797 Z" id="path-11"></path>
        <filter x="-2.4%" y="-1.1%" width="104.8%" height="104.5%" filterUnits="objectBoundingBox" id="filter-12">
            <feOffset dx="0" dy="3" in="SourceAlpha" result="shadowOffsetOuter1"></feOffset>
            <feGaussianBlur stdDeviation="1" in="shadowOffsetOuter1" result="shadowBlurOuter1"></feGaussianBlur>
            <feComposite in="shadowBlurOuter1" in2="SourceAlpha" operator="out" result="shadowBlurOuter1"></feComposite>
            <feColorMatrix values="0 0 0 0 0.819151947   0 0 0 0 0.818199808   0 0 0 0 0.818199808  0 0 0 1 0" type="matrix" in="shadowBlurOuter1" result="shadowMatrixOuter1"></feColorMatrix>
            <feOffset dx="0" dy="2" in="SourceAlpha" result="shadowOffsetOuter2"></feOffset>
            <feGaussianBlur stdDeviation="0.5" in="shadowOffsetOuter2" result="shadowBlurOuter2"></feGaussianBlur>
            <feComposite in="shadowBlurOuter2" in2="SourceAlpha" operator="out" result="shadowBlurOuter2"></feComposite>
            <feColorMatrix values="0 0 0 0 0.93212183   0 0 0 0 0.93212183   0 0 0 0 0.93212183  0 0 0 1 0" type="matrix" in="shadowBlurOuter2" result="shadowMatrixOuter2"></feColorMatrix>
            <feMerge>
                <feMergeNode in="shadowMatrixOuter1"></feMergeNode>
                <feMergeNode in="shadowMatrixOuter2"></feMergeNode>
            </feMerge>
        </filter>
        <path d="M1455.20306,279 L1461.02402,277.873239 C1463.15211,277.873239 1466.12518,277.998435 1469.94323,278.248826 C1470.50655,278.311424 1471.19505,278.342723 1472.00873,278.342723 C1474.13683,278.342723 1476.92213,278.029734 1480.36463,277.403756 C1484.93377,275.651017 1489.5968,273.86698 1494.35371,272.051643 C1497.35808,268.984351 1500.55022,264.383412 1503.93013,258.248826 C1505.5575,253.616588 1507.24745,249.109546 1509,244.7277 L1509,244.7277 L1508.90611,237.497653 C1508.90611,236.057903 1508.65575,233.553991 1508.15502,229.985915 C1508.15502,228.608764 1507.87336,226.449139 1507.31004,223.507042 C1507.31004,222.568075 1506.59025,220.627543 1505.15066,217.685446 C1503.27293,212.552426 1500.83188,207.482003 1497.82751,202.474178 C1496.45051,199.907668 1495.76201,197.56025 1495.76201,195.431925 C1495.76201,194.743349 1495.8559,194.054773 1496.04367,193.366197 L1496.04367,193.366197 L1496.70087,190.267606 C1499.07933,184.946792 1500.86317,179.500782 1502.0524,173.929577 C1501.55167,169.485133 1500.6754,164.7277 1499.42358,159.657277 C1497.73362,153.334898 1494.51019,148.546166 1489.75328,145.29108 C1484.99636,141.472613 1477.70451,139.375587 1467.87773,139 C1462.80786,139 1458.17613,139.876369 1453.98253,141.629108 C1442.21543,143.882629 1436.33188,146.386541 1436.33188,149.140845 C1437.02038,151.331768 1439.17977,153.491393 1442.81004,155.619718 C1444.18705,156.308294 1446.06477,156.871674 1448.44323,157.309859 L1448.44323,157.309859 L1450.22707,157.028169 C1452.16739,154.71205 1454.04512,153.522692 1455.86026,153.460094 L1455.86026,153.460094 L1459.33406,155.244131 L1460.74236,155.244131 L1463.37118,153.835681 L1465.24891,153.460094 C1467.18923,153.460094 1469.09825,154.336463 1470.97598,156.089202 L1470.97598,156.089202 L1472.19651,156.276995 C1473.94905,155.400626 1475.38865,154.962441 1476.51528,154.962441 C1477.57933,154.962441 1478.58079,155.212833 1479.51965,155.713615 C1480.14556,156.339593 1481.39738,157.904538 1483.27511,160.408451 C1486.52984,162.161189 1488.65793,164.7277 1489.65939,168.107981 L1489.65939,168.107981 L1489.65939,169.234742 C1489.65939,173.86698 1488.81441,177.184664 1487.12445,179.187793 C1485.12154,181.128326 1482.33624,183.381847 1478.76856,185.948357 C1475.26346,188.076682 1472.07132,189.735524 1469.19214,190.924883 C1466.43814,192.42723 1464.24745,194.524257 1462.62009,197.215962 L1462.62009,197.215962 L1461.68122,198.906103 C1461.68122,199.344288 1462.36972,200.158059 1463.74672,201.347418 C1467.18923,202.912363 1471.25764,205.197183 1475.95197,208.201878 C1478.95633,209.516432 1481.42868,211.989045 1483.369,215.619718 C1487.81295,216.934272 1490.03493,221.316119 1490.03493,228.765258 L1490.03493,228.765258 L1490.03493,229.798122 C1490.03493,234.43036 1488.47016,237.904538 1485.34061,240.220657 C1483.58806,245.165884 1481.42868,248.827856 1478.86245,251.206573 C1476.4214,253.084507 1473.51092,254.023474 1470.131,254.023474 L1470.131,254.023474 L1469.84934,254.023474 L1468.34716,254.586854 C1462.90175,257.716745 1457.92576,259.469484 1453.41921,259.84507 L1453.41921,259.84507 L1452.29258,259.84507 C1448.09898,259.28169 1444.78166,258.311424 1442.34061,256.934272 L1442.34061,256.934272 L1441.12009,256.934272 C1438.11572,257.56025 1435.76856,257.873239 1434.0786,257.873239 C1433.20233,257.873239 1432.38865,257.810642 1431.63755,257.685446 C1429.38428,257.309859 1427.41266,257.122066 1425.72271,257.122066 C1423.90757,257.122066 1423,257.873239 1423,259.375587 C1423,260.314554 1423.31295,261.503912 1423.93886,262.943662 C1425.19068,266.636933 1430.07278,270.893584 1438.58515,275.713615 C1443.27948,277.904538 1448.47453,279 1454.17031,279 L1454.17031,279 L1455.20306,279 Z" id="path-13"></path>
        <filter x="-6.4%" y="-3.2%" width="112.8%" height="110.7%" filterUnits="objectBoundingBox" id="filter-14">
            <feMorphology radius="0.025" operator="dilate" in="SourceAlpha" result="shadowSpreadOuter1"></feMorphology>
            <feOffset dx="0" dy="5" in="shadowSpreadOuter1" result="shadowOffsetOuter1"></feOffset>
            <feGaussianBlur stdDeviation="1" in="shadowOffsetOuter1" result="shadowBlurOuter1"></feGaussianBlur>
            <feComposite in="shadowBlurOuter1" in2="SourceAlpha" operator="out" result="shadowBlurOuter1"></feComposite>
            <feColorMatrix values="0 0 0 0 0.547412817   0 0 0 0 0.547412817   0 0 0 0 0.547412817  0 0 0 1 0" type="matrix" in="shadowBlurOuter1" result="shadowMatrixOuter1"></feColorMatrix>
            <feMorphology radius="0.025" operator="dilate" in="SourceAlpha" result="shadowSpreadOuter2"></feMorphology>
            <feOffset dx="0" dy="4" in="shadowSpreadOuter2" result="shadowOffsetOuter2"></feOffset>
            <feGaussianBlur stdDeviation="1" in="shadowOffsetOuter2" result="shadowBlurOuter2"></feGaussianBlur>
            <feComposite in="shadowBlurOuter2" in2="SourceAlpha" operator="out" result="shadowBlurOuter2"></feComposite>
            <feColorMatrix values="0 0 0 0 0.649626359   0 0 0 0 0.649626359   0 0 0 0 0.649626359  0 0 0 1 0" type="matrix" in="shadowBlurOuter2" result="shadowMatrixOuter2"></feColorMatrix>
            <feMorphology radius="0.025" operator="dilate" in="SourceAlpha" result="shadowSpreadOuter3"></feMorphology>
            <feOffset dx="0" dy="3" in="shadowSpreadOuter3" result="shadowOffsetOuter3"></feOffset>
            <feGaussianBlur stdDeviation="1" in="shadowOffsetOuter3" result="shadowBlurOuter3"></feGaussianBlur>
            <feComposite in="shadowBlurOuter3" in2="SourceAlpha" operator="out" result="shadowBlurOuter3"></feComposite>
            <feColorMatrix values="0 0 0 0 0.744706748   0 0 0 0 0.744706748   0 0 0 0 0.744706748  0 0 0 1 0" type="matrix" in="shadowBlurOuter3" result="shadowMatrixOuter3"></feColorMatrix>
            <feMorphology radius="0.025" operator="dilate" in="SourceAlpha" result="shadowSpreadOuter4"></feMorphology>
            <feOffset dx="0" dy="2" in="shadowSpreadOuter4" result="shadowOffsetOuter4"></feOffset>
            <feGaussianBlur stdDeviation="1" in="shadowOffsetOuter4" result="shadowBlurOuter4"></feGaussianBlur>
            <feComposite in="shadowBlurOuter4" in2="SourceAlpha" operator="out" result="shadowBlurOuter4"></feComposite>
            <feColorMatrix values="0 0 0 0 0.864923007   0 0 0 0 0.864923007   0 0 0 0 0.864923007  0 0 0 1 0" type="matrix" in="shadowBlurOuter4" result="shadowMatrixOuter4"></feColorMatrix>
            <feMorphology radius="0.025" operator="dilate" in="SourceAlpha" result="shadowSpreadOuter5"></feMorphology>
            <feOffset dx="0" dy="1" in="shadowSpreadOuter5" result="shadowOffsetOuter5"></feOffset>
            <feGaussianBlur stdDeviation="1" in="shadowOffsetOuter5" result="shadowBlurOuter5"></feGaussianBlur>
            <feComposite in="shadowBlurOuter5" in2="SourceAlpha" operator="out" result="shadowBlurOuter5"></feComposite>
            <feColorMatrix values="0 0 0 0 1   0 0 0 0 1   0 0 0 0 1  0 0 0 1 0" type="matrix" in="shadowBlurOuter5" result="shadowMatrixOuter5"></feColorMatrix>
            <feMerge>
                <feMergeNode in="shadowMatrixOuter1"></feMergeNode>
                <feMergeNode in="shadowMatrixOuter2"></feMergeNode>
                <feMergeNode in="shadowMatrixOuter3"></feMergeNode>
                <feMergeNode in="shadowMatrixOuter4"></feMergeNode>
                <feMergeNode in="shadowMatrixOuter5"></feMergeNode>
            </feMerge>
        </filter>
        <text id="text-15" font-family="ExoRoman-SemiBold, Exo" font-size="100" font-weight="500" letter-spacing="9.76678025" fill="#FAFAFA">
            <tspan x="1011.17795" y="100">Made On</tspan>
        </text>
        <filter x="-0.4%" y="-0.8%" width="100.8%" height="103.0%" filterUnits="objectBoundingBox" id="filter-16">
            <feOffset dx="0" dy="1" in="SourceAlpha" result="shadowOffsetOuter1"></feOffset>
            <feGaussianBlur stdDeviation="0.5" in="shadowOffsetOuter1" result="shadowBlurOuter1"></feGaussianBlur>
            <feColorMatrix values="0 0 0 0 0.839305933   0 0 0 0 0.839305933   0 0 0 0 0.839305933  0 0 0 1 0" type="matrix" in="shadowBlurOuter1"></feColorMatrix>
        </filter>
    </defs>
    <g id="ICON-s3_Watermark" stroke="none" stroke-width="1" fill="none" fill-rule="evenodd">
        <g id="Group-2" transform="translate(22.000000, 24.000000)">
            <g id="Combined-Shape" fill-rule="nonzero">
                <use fill="black" fill-opacity="1" filter="url(#filter-2)" xlink:href="#path-1"></use>
                <use fill="#FAFAFA" xlink:href="#path-1"></use>
            </g>
            <g id="Combined-Shape" fill-rule="nonzero">
                <use fill="black" fill-opacity="1" filter="url(#filter-4)" xlink:href="#path-3"></use>
                <use fill="#FAFAFA" xlink:href="#path-3"></use>
            </g>
            <g id="Combined-Shape" fill-rule="nonzero">
                <use fill="black" fill-opacity="1" filter="url(#filter-6)" xlink:href="#path-5"></use>
                <use fill="#FAFAFA" xlink:href="#path-5"></use>
            </g>
            <g id="Combined-Shape" fill-rule="nonzero">
                <use fill="black" fill-opacity="1" filter="url(#filter-8)" xlink:href="#path-7"></use>
                <use fill="#FAFAFA" xlink:href="#path-7"></use>
            </g>
            <g id="Combined-Shape" fill-rule="nonzero">
                <use fill="black" fill-opacity="1" filter="url(#filter-10)" xlink:href="#path-9"></use>
                <use fill="#FAFAFA" xlink:href="#path-9"></use>
            </g>
            <g id="Combined-Shape" fill-rule="nonzero">
                <use fill="black" fill-opacity="1" filter="url(#filter-12)" xlink:href="#path-11"></use>
                <use fill="#FAFAFA" xlink:href="#path-11"></use>
            </g>
            <g id="3" fill-rule="nonzero">
                <use fill="black" fill-opacity="1" filter="url(#filter-14)" xlink:href="#path-13"></use>
                <use stroke="#FFFFFF" stroke-width="0.05" fill="#FAFAFA" xlink:href="#path-13"></use>
            </g>
            <g id="Made-On" fill="#FAFAFA" fill-opacity="1">
                <use filter="url(#filter-16)" xlink:href="#text-15"></use>
                <use xlink:href="#text-15"></use>
            </g>
        </g>
    </g>
</svg>